<svg width="16" height="16" viewBox="0 0 16 16" fill="none" xmlns="http://www.w3.org/2000/svg">
<path d="M15.5 5.08333V12.7917C15.5 14.2874 14.2874 15.5 12.7917 15.5H3.20833C1.71256 15.5 0.5 14.2874 0.5 12.7917V5.08333H15.5ZM9.6626 6.91276C9.10921 6.91276 8.66976 7.0606 8.34424 7.35628C8.01872 7.65197 7.85596 8.05208 7.85596 8.55664C7.85596 8.8469 7.92988 9.10528 8.07772 9.33179C8.22556 9.5583 8.42697 9.73665 8.68197 9.86686C8.37814 10.0025 8.14214 10.1965 7.97396 10.4487C7.80577 10.701 7.72168 10.9858 7.72168 11.3032C7.72168 11.8213 7.89868 12.2337 8.25269 12.5402C8.60669 12.8467 9.07801 13 9.66667 13C10.2526 13 10.7219 12.8474 11.0745 12.5422C11.4272 12.2371 11.6035 11.8241 11.6035 11.3032C11.6035 10.9886 11.5201 10.7064 11.3533 10.4569C11.1864 10.2073 10.9484 10.0106 10.6392 9.86686C10.8969 9.73665 11.1003 9.5583 11.2495 9.33179C11.3987 9.10528 11.4733 8.8469 11.4733 8.55664C11.4733 8.05208 11.3105 7.65197 10.985 7.35628C10.6595 7.0606 10.2187 6.91276 9.6626 6.91276ZM6.51644 6.9738H6.3903L4.0791 7.82422V8.65837L5.53174 8.16195V12.9186H6.51644V6.9738ZM9.65853 10.2738C9.94607 10.2738 10.1773 10.364 10.3523 10.5444C10.5273 10.7247 10.6147 10.9614 10.6147 11.2544C10.6147 11.5555 10.5313 11.7901 10.3645 11.9583C10.1977 12.1265 9.96506 12.2106 9.66667 12.2106C9.36827 12.2106 9.13431 12.1238 8.96476 11.9502C8.79522 11.7766 8.71045 11.5447 8.71045 11.2544C8.71045 10.9587 8.79658 10.7214 8.96883 10.5423C9.14109 10.3633 9.37098 10.2738 9.65853 10.2738ZM9.6626 7.70622C9.91488 7.70622 10.1156 7.78963 10.2648 7.95646C10.414 8.12329 10.4886 8.33556 10.4886 8.59326C10.4886 8.86453 10.4147 9.08019 10.2668 9.24023C10.119 9.40028 9.91895 9.48031 9.66667 9.48031C9.41439 9.48031 9.21433 9.40028 9.06649 9.24023C8.91865 9.08019 8.84473 8.86453 8.84473 8.59326C8.84473 8.31928 8.91797 8.10295 9.06445 7.94425C9.21094 7.78556 9.41032 7.70622 9.6626 7.70622ZM12.7917 0.5C14.2874 0.5 15.5 1.71256 15.5 3.20833V3.83333H0.5V3.20833C0.5 1.71256 1.71256 0.5 3.20833 0.5H12.7917Z" fill="#AAAAAA"/>
</svg>
