<svg width="21" height="19" viewBox="0 0 21 19" fill="none" xmlns="http://www.w3.org/2000/svg">
<path d="M12.75 12C13.7165 12 14.5 12.7835 14.5 13.75L14.4989 14.7121C14.6156 16.9012 12.9879 18.009 10.0668 18.009C7.15786 18.009 5.5 16.9192 5.5 14.75V13.75C5.5 12.7835 6.2835 12 7.25 12H12.75ZM1.75 7L6.126 7.00008C6.04375 7.31968 6 7.65473 6 8C6 9.11553 6.45665 10.1244 7.1932 10.8499L7.35526 11.001L7.25 11C6.94865 11 6.65863 11.0485 6.38729 11.138C5.52255 11.4235 4.84765 12.1264 4.60122 13.0082L4.56679 13.009C1.65786 13.009 0 11.9192 0 9.75V8.75C0 7.7835 0.783502 7 1.75 7ZM18.25 7C19.2165 7 20 7.7835 20 8.75L19.9989 9.71207C20.1156 11.9012 18.4879 13.009 15.5668 13.009L15.3985 13.0073C15.1596 12.1534 14.5188 11.4673 13.6929 11.1659C13.4576 11.08 13.2073 11.0254 12.947 11.0069L12.75 11L12.6447 11.001C13.4758 10.268 14 9.19521 14 8C14 7.65473 13.9563 7.31968 13.874 7.00008L18.25 7ZM10 5C11.6569 5 13 6.34315 13 8C13 9.65685 11.6569 11 10 11C8.34315 11 7 9.65685 7 8C7 6.34315 8.34315 5 10 5ZM4.5 0C6.15685 0 7.5 1.34315 7.5 3C7.5 4.65685 6.15685 6 4.5 6C2.84315 6 1.5 4.65685 1.5 3C1.5 1.34315 2.84315 0 4.5 0ZM15.5 0C17.1569 0 18.5 1.34315 18.5 3C18.5 4.65685 17.1569 6 15.5 6C13.8431 6 12.5 4.65685 12.5 3C12.5 1.34315 13.8431 0 15.5 0Z" fill="#2F41B5"/>
</svg>
